<?xml version="1.0" standalone="no"?>
<!DOCTYPE svg PUBLIC "-//W3C//DTD SVG 20010904//EN"
 "http://www.w3.org/TR/2001/REC-SVG-20010904/DTD/svg10.dtd">
<svg version="1.0" xmlns="http://www.w3.org/2000/svg"
 width="545.000000pt" height="545.000000pt" viewBox="0 0 545.000000 545.000000"
 preserveAspectRatio="xMidYMid meet">
<metadata>
Created by potrace 1.11, written by Peter Selinger 2001-2013
</metadata>
<g transform="translate(0.000000,545.000000) scale(0.100000,-0.100000)"
fill="#000000" stroke="none">
<path d="M595 4185 c-5 -2 -22 -6 -37 -9 -37 -8 -85 -51 -108 -97 -19 -37 -20
-69 -20 -1352 0 -1197 2 -1317 17 -1348 24 -50 76 -96 123 -109 52 -14 908
-12 916 2 3 5 12 7 18 5 7 -3 35 -1 62 4 27 6 61 12 75 14 15 2 60 13 100 24
470 132 818 481 950 951 24 82 23 80 32 130 4 19 10 49 13 65 14 62 12 458 -1
523 -8 35 -16 80 -19 100 -8 63 -72 244 -116 333 -47 95 -132 226 -182 281
-18 20 -42 47 -53 60 -75 85 -239 205 -373 272 -121 60 -342 133 -364 120 -4
-3 -8 -2 -8 3 0 4 -10 9 -22 9 -13 1 -43 5 -68 9 -42 7 -914 16 -935 10z m777
-345 c106 -4 288 -40 348 -70 8 -4 38 -18 65 -31 140 -65 318 -218 400 -344
53 -80 125 -225 125 -251 0 -11 4 -24 9 -30 13 -14 39 -130 48 -214 13 -119 7
-336 -12 -420 -9 -41 -18 -85 -21 -98 -7 -36 -49 -142 -79 -202 -90 -179 -226
-326 -397 -429 -59 -35 -150 -77 -187 -87 -9 -2 -48 -13 -87 -23 -40 -11 -98
-22 -130 -26 -66 -7 -602 -13 -621 -7 -17 5 -19 2228 -3 2234 11 3 418 2 542
-2z"/>
<path d="M3506 4182 c-38 -9 -93 -53 -117 -95 l-24 -42 0 -1310 c-1 -840 3
-1322 9 -1343 13 -44 77 -109 118 -121 19 -5 368 -9 841 -10 885 -1 842 -4
910 59 81 73 72 215 -18 292 -44 38 -81 40 -787 40 l-688 0 -1 1182 c0 649 -2
1192 -5 1205 -7 39 -44 91 -83 117 -36 24 -112 37 -155 26z"/>
</g>
</svg>
